<svg width="525" height="525" viewBox="0 0 525 525" fill="none" xmlns="http://www.w3.org/2000/svg">
<path d="M388.57 218.46C377.371 218.46 366.543 219.952 356.277 222.565C376.437 200.167 388.57 170.67 388.57 138.19C388.57 68.378 332.011 12 262.38 12C192.568 12 136.19 68.559 136.19 138.19C136.19 170.67 148.51 200.163 168.67 222.565C158.217 219.764 147.389 218.272 136.19 218.272C66.378 218.272 10 274.831 10 344.462C10 414.274 66.559 470.652 136.19 470.652C185.471 470.652 228.217 442.464 248.94 401.211L219.448 514.521H305.315L275.823 401.401C296.542 442.655 339.288 470.842 388.573 470.842C458.385 470.842 514.763 414.283 514.763 344.652C514.947 274.84 458.388 218.462 388.573 218.462L388.57 218.46Z" fill="#023047"/>
</svg>
