<svg width="525" height="525" viewBox="0 0 525 525" fill="none" xmlns="http://www.w3.org/2000/svg">
<path d="M480.954 258.898C481.141 258.898 480.954 258.711 480.579 258.523C472.18 249.562 462.657 241.91 452.02 235.75C405.727 197.109 314.63 113.11 262.37 11C210.104 113.11 119.01 197.11 72.7195 235.93C62.0785 242.09 52.5595 249.742 44.1605 258.703C43.7855 258.891 43.7855 259.078 43.7855 259.078H43.973C22.879 281.664 10 311.906 10 345.133C10 414.945 66.559 471.323 136.19 471.323C185.471 471.323 228.217 443.135 248.94 401.882L219.444 515.002H305.311L275.819 401.882C296.538 443.136 339.284 471.323 388.569 471.323C458.381 471.323 514.759 414.764 514.759 345.133C514.943 311.719 502.064 281.481 480.97 258.895L480.954 258.898Z" fill="#023047"/>
</svg>
