<svg width="525" height="525" viewBox="0 0 525 525" fill="none" xmlns="http://www.w3.org/2000/svg">
<path d="M412.658 419H124.85C133.199 367.453 140.758 329.28 147.532 304.477C155.549 268.759 152.333 241.569 93.4932 233.385C92.3716 249.651 78.8246 262.497 62.2835 262.497C45.0049 262.497 31 248.485 31 231.198C31 213.91 45.0049 199.898 62.2835 199.898C73.0983 199.898 82.63 205.387 88.2465 213.731C132.03 179.716 164.404 187.925 188.639 213.164C252.458 117.694 306.812 87.7535 355.882 119.16C361.552 111.196 370.856 106 381.378 106C398.657 106 412.662 120.012 412.662 137.299C412.662 154.587 398.657 168.599 381.378 168.599C364.244 168.599 350.326 154.818 350.095 137.728C297.771 138.343 293.354 173.647 336.836 243.638C361.643 233.172 394.541 238.46 435.54 259.501C440.93 250.074 451.081 243.717 462.717 243.717C479.991 243.717 494 257.729 494 275.016C494 292.303 479.991 306.315 462.717 306.315C445.438 306.315 431.433 292.303 431.433 275.016C431.433 274.523 431.442 274.029 431.464 273.536C381.077 280.313 374.806 328.799 412.662 418.989L412.658 419Z" fill="#A7C957"/>
</svg>
