<svg width="525" height="525" viewBox="0 0 525 525" fill="none" xmlns="http://www.w3.org/2000/svg">
<path d="M268.629 28V78.383C281.211 78.7619 293.547 80.3283 305.379 83.1057L318.504 34.4727C302.457 30.5977 285.774 28.4024 268.629 28ZM257.43 28C240.285 28.4023 223.602 30.5977 207.555 34.4727L220.68 83.1057C232.512 80.3284 244.844 78.7619 257.43 78.383V28ZM329.356 37.2734L316.231 85.9064C328.227 89.508 339.696 94.2384 350.532 100.074L375.731 56.5154C361.141 48.5427 345.614 42.0354 329.356 37.2734ZM196.706 37.2734C180.448 42.0351 164.921 48.5464 150.331 56.5154L175.53 100.074C186.37 94.2306 197.831 89.5084 209.831 85.9064L196.706 37.2734ZM385.526 62.1134L360.327 105.847C370.897 112.402 380.718 119.929 389.725 128.413L425.424 92.7254C413.311 81.1744 399.889 70.8864 385.526 62.1134ZM140.526 62.1134C126.182 70.8751 112.901 81.1954 100.799 92.7264L136.498 128.414C145.498 119.946 155.342 112.391 165.896 105.848L140.526 62.1134ZM268.626 89.5784V257.348H436.446C429.368 161.825 364.825 94.8084 268.626 89.5784ZM257.427 89.5784C165.958 92.4807 92.5066 165.906 89.6066 257.348H257.427V89.5784ZM433.307 100.598L397.608 136.286C406.096 145.294 413.628 155.11 420.182 165.677L463.932 140.486C455.154 126.127 444.862 112.708 433.307 100.598ZM92.9266 100.598C81.3526 112.719 71.0906 126.11 62.3016 140.485L105.876 165.676C112.415 155.141 120.169 145.446 128.626 136.461L92.9266 100.598ZM330.227 139.786C352.625 139.786 358.227 159.575 347.028 169.524C363.958 164.696 375.028 174.54 375.028 189.465C375.153 204.219 352.462 214.418 335.829 209.406C335.829 219.36 335.829 224.371 340.204 229.347H320.255C324.606 224.375 324.704 219.277 324.805 209.054C307.907 214.301 285.43 202.898 285.43 189.46C285.43 174.534 296.629 164.538 313.43 169.519C302.231 159.566 307.833 139.781 330.231 139.781L330.227 139.786ZM195.827 139.786C210.761 153.22 240.628 166.552 240.628 188.942C240.628 202.376 215.835 211.438 200.901 206.962C200.901 215.919 200.822 220.4 205.799 229.353H185.85C190.827 220.396 190.924 215.919 190.924 206.962C175.99 211.443 151.026 202.38 151.026 188.942C151.026 166.551 180.893 153.219 195.827 139.786ZM469.527 150.106L425.777 175.297C431.671 186.192 436.5 197.688 440.129 209.758L488.777 196.637C483.995 180.332 477.535 164.727 469.527 150.106ZM56.5266 150.106C48.5227 164.727 42.0536 180.336 37.2766 196.637L86.1006 209.758C89.7139 197.738 94.5928 186.324 100.453 175.469L56.5266 150.106ZM491.577 207.309L442.929 220.43C445.729 232.309 447.272 244.703 447.655 257.34H498.229C497.827 240.141 495.483 223.399 491.581 207.309H491.577ZM34.4766 207.309C30.5743 223.399 28.4063 240.145 28 257.34H78.398C78.7769 244.692 80.4957 232.317 83.2964 220.43L34.4766 207.309ZM498.227 268.536H447.653C447.274 281.114 445.707 293.446 442.926 305.274L491.574 318.395C495.453 302.36 497.82 285.676 498.222 268.54L498.227 268.536ZM436.454 268.536H268.634V436.306C360.103 433.404 433.554 359.978 436.454 268.536ZM257.434 268.536H89.6136C92.5198 359.974 165.969 433.396 257.434 436.306V268.536ZM78.4136 268.536H28.0156C28.4179 285.673 30.6133 302.36 34.4922 318.391L83.1402 305.27C80.3668 293.446 78.7925 281.106 78.4136 268.532V268.536ZM330.234 296.528L369.433 341.313L330.234 386.098L291.035 341.313L330.234 296.528ZM219.984 296.528C233.765 296.528 240.632 307.583 240.632 322.594C240.425 340.731 210.64 367.465 195.655 386.098C180.772 367.465 151.905 338.754 151.03 322.594C151.03 307.586 157.897 296.532 171.678 296.528C182.018 296.528 187.838 303.364 195.479 306.848C203.912 303.473 209.639 296.524 219.979 296.528H219.984ZM440.134 316.122C436.528 328.118 431.802 339.575 425.958 350.411L469.532 375.602C477.504 361.024 484.016 345.493 488.782 329.243L440.134 316.122ZM86.1136 316.122L37.2896 329.243C42.0552 345.489 48.5666 361.028 56.5396 375.602L100.29 350.411C94.4458 339.575 89.7196 328.118 86.1136 316.122ZM420.184 360.032C413.637 370.583 406.082 380.427 397.61 389.423L433.309 425.111C444.918 412.955 455.305 399.65 464.11 385.224L420.184 360.032ZM105.884 360.032L62.1336 385.223C70.9461 399.664 81.3056 412.938 92.9346 425.11L128.458 389.422C120.016 380.446 112.411 370.555 105.884 360.031V360.032ZM389.734 397.294C380.718 405.783 370.91 413.478 360.336 420.036L385.535 463.595C399.914 454.818 413.308 444.54 425.433 432.982L389.734 397.294ZM136.504 397.294L100.805 432.982C112.918 444.521 126.168 454.83 140.532 463.595L165.731 419.861C155.247 413.342 145.454 405.713 136.504 397.295V397.294ZM350.524 425.634C339.688 431.474 328.219 436.2 316.223 439.806L329.348 488.439C345.606 483.682 361.133 477.158 375.723 469.197L350.524 425.634ZM175.524 425.634L150.325 469.193C164.915 477.158 180.438 483.677 196.7 488.435L209.825 439.802C197.825 436.197 186.364 431.474 175.524 425.63V425.634ZM305.374 442.779C293.546 445.553 281.202 447.123 268.624 447.502V497.885C285.769 497.483 302.452 495.112 318.499 491.237L305.374 442.779ZM220.675 442.779L207.55 491.236C223.597 495.108 240.28 497.482 257.425 497.885V447.502C244.847 447.123 232.503 445.553 220.675 442.779Z" fill="#1D3FB7"/>
</svg>
